<?xml version="1.0" standalone="no"?>
<!DOCTYPE svg PUBLIC "-//W3C//DTD SVG 20010904//EN"
 "http://www.w3.org/TR/2001/REC-SVG-20010904/DTD/svg10.dtd">
<svg version="1.0" xmlns="http://www.w3.org/2000/svg"
 width="708.000000pt" height="708.000000pt" viewBox="0 0 708.000000 708.000000"
 preserveAspectRatio="xMidYMid meet">
<metadata>
Created by potrace 1.10, written by Peter Selinger 2001-2011
</metadata>
<g transform="translate(0.000000,708.000000) scale(0.100000,-0.100000)"
fill="#ffffff" stroke="none">
<path d="M3290 6665 c-47 -7 -113 -14 -147 -14 -34 -1 -74 -6 -90 -12 -15 -6
-57 -14 -93 -19 -63 -8 -91 -15 -210 -47 -128 -35 -167 -47 -197 -60 -17 -7
-36 -13 -42 -13 -6 0 -25 -6 -43 -14 -18 -8 -53 -22 -78 -32 -60 -23 -357
-170 -395 -194 -16 -11 -37 -23 -45 -27 -53 -27 -241 -161 -246 -175 -16 -51
44 -50 116 2 105 75 270 170 422 244 84 40 162 76 173 79 11 3 45 15 75 27 30
12 69 25 85 30 28 8 52 15 128 41 17 6 53 15 79 19 26 5 56 13 67 19 11 6 32
11 48 11 15 0 50 7 77 15 27 8 68 15 90 15 23 1 68 7 101 15 45 11 131 15 350
15 219 0 305 -4 350 -15 33 -8 77 -14 98 -15 35 0 89 -11 212 -41 22 -6 58
-14 80 -19 22 -4 56 -13 75 -20 63 -22 95 -32 125 -40 17 -5 55 -18 85 -30 30
-12 64 -24 75 -27 11 -3 88 -38 171 -79 284 -137 502 -282 723 -482 40 -37 81
-70 90 -73 23 -8 51 1 51 17 0 23 -130 146 -289 274 -44 35 -257 181 -282 193
-8 4 -27 16 -44 27 -38 24 -335 171 -395 194 -25 10 -60 24 -78 32 -18 8 -37
14 -43 14 -6 0 -25 6 -42 13 -30 13 -69 25 -197 60 -119 32 -147 39 -210 47
-36 5 -78 13 -93 19 -16 6 -54 11 -85 11 -31 0 -102 7 -157 15 -121 18 -329
17 -445 0z"/>
<path d="M727 5773 c-12 -11 -8 -80 6 -90 6 -6 62 -13 122 -16 119 -6 165 -19
227 -69 28 -22 42 -44 55 -86 17 -53 18 -137 18 -1162 0 -1165 -2 -1220 -45
-1316 -42 -92 -119 -132 -235 -121 -106 10 -188 60 -200 122 -6 32 11 69 89
197 34 56 39 72 43 143 7 104 -18 174 -84 239 -66 65 -122 90 -215 94 -142 7
-248 -57 -310 -186 -29 -62 -32 -74 -31 -172 0 -115 16 -174 75 -279 72 -126
234 -258 383 -314 195 -72 484 -77 687 -10 199 65 373 208 456 376 101 203
112 342 112 1494 0 777 2 867 16 905 38 97 114 138 274 147 92 6 95 7 104 33
7 18 6 35 -2 53 l-12 25 -763 0 c-420 0 -767 -3 -770 -7z"/>
<path d="M5741 5496 c-17 -20 -44 -133 -37 -152 4 -10 16 -14 33 -12 23 2 33
14 61 72 18 38 32 76 30 85 -4 22 -70 27 -87 7z"/>
<path d="M2653 5334 c-53 -19 -108 -80 -123 -136 -25 -92 12 -198 84 -237 37
-20 53 -23 135 -20 102 4 121 15 121 70 l0 27 -85 -5 c-97 -7 -135 8 -135 52
0 29 -4 28 121 25 121 -2 142 7 134 58 -17 98 -48 140 -124 167 -52 18 -73 18
-128 -1z m105 -82 c16 -13 23 -26 20 -43 -3 -22 -7 -24 -63 -24 -51 0 -60 3
-63 20 -3 12 6 27 24 42 35 27 51 28 82 5z"/>
<path d="M3071 5335 c-51 -17 -103 -63 -126 -111 -22 -47 -19 -131 6 -179 44
-82 100 -109 214 -103 64 3 78 7 111 34 68 55 78 75 79 162 0 69 -3 83 -27
119 -48 73 -164 108 -257 78z m139 -117 c14 -16 19 -39 20 -78 0 -46 -4 -60
-25 -83 -58 -62 -145 -14 -145 79 0 51 22 100 47 108 35 9 84 -3 103 -26z"/>
<path d="M3615 5325 c-49 -24 -49 -24 -70 -5 -12 11 -35 20 -52 20 -65 0 -63
6 -63 -200 0 -207 -2 -200 64 -200 51 0 56 12 56 142 0 113 1 120 25 143 29
30 58 32 85 5 18 -18 20 -33 20 -145 0 -140 5 -149 78 -143 l37 3 3 155 c2
141 0 158 -18 188 -19 31 -71 62 -103 62 -7 0 -36 -11 -62 -25z"/>
<path d="M3995 5338 c-51 -18 -82 -46 -106 -95 -47 -97 -20 -236 55 -283 43
-26 114 -26 163 0 32 17 38 18 46 5 10 -18 -12 -61 -47 -94 -28 -26 -86 -32
-162 -17 -48 9 -60 -6 -43 -51 15 -39 24 -43 122 -43 74 0 95 4 136 25 100 50
121 111 121 356 0 166 -1 179 -19 189 -28 15 -82 12 -100 -4 -14 -13 -22 -12
-60 5 -48 21 -63 22 -106 7z m129 -109 c23 -18 26 -27 26 -82 0 -53 -4 -66
-25 -90 -64 -68 -150 5 -130 109 8 44 45 84 78 84 13 0 36 -9 51 -21z"/>
<path d="M4477 5335 c-97 -36 -137 -95 -137 -202 0 -132 67 -193 210 -193 86
0 121 14 134 52 12 35 -7 62 -34 48 -10 -6 -47 -10 -83 -10 -54 0 -67 3 -87
24 -42 45 -24 56 95 56 120 0 145 8 145 48 0 84 -45 152 -117 176 -55 19 -76
19 -126 1z m97 -86 c17 -14 26 -29 24 -43 -3 -18 -11 -21 -59 -24 -82 -4 -103
32 -41 71 35 22 44 21 76 -4z"/>
<path d="M5435 5335 c-16 -8 -38 -20 -47 -27 -15 -11 -20 -9 -33 10 -11 15
-26 22 -50 22 -67 0 -65 7 -65 -200 0 -207 -2 -200 64 -200 52 0 56 12 56 146
0 120 0 123 26 143 31 25 53 26 80 7 17 -13 19 -29 22 -143 2 -70 8 -134 14
-140 14 -18 83 -16 98 2 8 10 11 57 8 163 -3 167 -12 191 -74 217 -44 18 -60
18 -99 0z"/>
<path d="M5988 5334 c-60 -18 -98 -62 -98 -113 0 -52 28 -84 97 -111 32 -12
66 -32 76 -43 18 -20 18 -22 0 -35 -13 -10 -37 -12 -95 -7 l-78 6 0 -30 c0
-50 21 -61 113 -61 102 0 143 18 174 79 35 69 9 115 -93 161 -34 16 -65 34
-69 41 -11 17 34 52 60 46 83 -19 85 -20 91 -3 13 34 -4 62 -44 74 -49 15 -75
14 -134 -4z"/>
<path d="M4772 5328 c-8 -8 -12 -52 -12 -134 0 -138 15 -196 58 -231 36 -29
108 -31 160 -3 l37 20 14 -20 c15 -23 79 -28 99 -8 8 8 12 66 12 194 0 200 2
194 -64 194 -51 0 -56 -12 -56 -142 0 -113 -1 -120 -25 -143 -32 -33 -70 -32
-92 1 -14 22 -17 46 -14 139 2 93 -1 115 -14 129 -19 19 -85 22 -103 4z"/>
<path d="M882 5263 c-23 -32 -120 -233 -152 -313 -12 -30 -28 -70 -36 -88 -8
-18 -14 -37 -14 -43 0 -6 -6 -25 -13 -42 -13 -31 -34 -99 -62 -202 -28 -106
-38 -152 -45 -206 -4 -31 -12 -71 -18 -90 -10 -34 -24 -189 -26 -288 -1 -41 3
-56 17 -65 15 -9 21 -7 37 14 15 19 20 41 20 95 0 39 7 97 15 128 8 32 15 77
15 100 0 23 5 58 11 77 6 19 15 58 19 85 9 54 26 123 42 170 5 17 14 46 18 65
4 19 14 51 20 70 36 99 67 183 84 225 20 46 77 168 87 185 5 8 12 22 15 30 3
8 12 27 20 42 19 36 18 55 -5 68 -27 14 -27 14 -49 -17z"/>
<path d="M2185 4624 c-11 -11 -15 -30 -13 -58 3 -39 4 -41 45 -48 52 -8 101
-33 131 -66 20 -21 105 -188 147 -287 7 -16 17 -41 23 -55 6 -14 50 -126 98
-250 47 -124 94 -245 104 -270 15 -39 129 -337 180 -470 9 -25 27 -70 39 -100
13 -30 30 -73 38 -95 8 -22 21 -53 28 -70 7 -16 19 -48 28 -70 8 -22 22 -58
30 -80 9 -22 28 -71 42 -110 66 -174 122 -317 140 -360 7 -16 20 -48 29 -70
17 -44 91 -239 135 -355 16 -41 45 -115 64 -165 l35 -90 44 -3 c28 -2 48 2 55
10 5 7 24 51 43 98 18 47 38 99 45 115 7 17 22 55 34 85 22 54 30 75 56 135
29 68 166 408 195 485 23 61 60 151 98 240 20 46 264 660 276 693 13 40 41 13
67 -66 14 -42 29 -80 32 -84 4 -3 7 -13 7 -22 0 -9 6 -28 14 -43 8 -15 17 -40
21 -57 4 -17 11 -33 16 -36 5 -4 9 -16 9 -28 0 -13 6 -31 14 -42 7 -11 16 -31
19 -45 3 -14 12 -43 21 -65 57 -150 79 -210 156 -430 22 -60 49 -135 60 -165
12 -30 25 -66 30 -80 5 -14 18 -50 30 -80 12 -30 25 -66 30 -80 4 -14 45 -126
90 -250 45 -124 84 -235 87 -247 8 -34 27 -45 73 -41 l42 3 50 135 c27 74 56
152 64 173 8 20 21 56 30 80 9 23 22 57 30 75 8 18 14 40 14 50 0 9 7 26 15
36 8 11 15 29 15 41 0 12 4 25 9 31 5 5 14 25 19 44 6 19 25 73 42 120 18 47
45 121 60 165 16 44 39 105 50 135 12 30 30 82 41 115 12 33 27 74 35 92 8 17
14 36 14 42 0 6 6 25 14 43 27 64 26 62 227 616 33 92 64 177 69 189 5 12 21
57 36 100 14 43 30 82 35 87 5 6 9 18 9 28 0 9 6 32 14 50 8 18 22 53 31 78 9
25 23 59 30 75 7 17 22 55 33 85 69 191 128 262 232 279 33 6 35 8 38 51 3 33
-1 47 -14 57 -14 10 -98 13 -366 13 -335 0 -349 -1 -368 -20 -11 -11 -20 -30
-20 -43 0 -41 20 -54 92 -60 84 -6 144 -37 176 -92 41 -71 22 -190 -73 -450
-20 -55 -40 -111 -45 -125 -4 -14 -47 -131 -94 -260 -48 -129 -101 -273 -117
-320 -17 -47 -37 -101 -44 -120 -33 -83 -134 -367 -141 -393 -11 -48 -32 -27
-68 71 -9 23 -23 60 -31 82 -8 22 -21 57 -29 78 -8 20 -21 55 -29 77 -9 22
-37 99 -62 170 -26 72 -53 146 -60 165 -13 31 -122 331 -240 655 -64 176 -105
305 -105 330 0 31 39 86 79 109 24 14 60 21 124 25 87 6 91 7 98 31 8 30 0 72
-15 82 -6 4 -313 8 -682 8 -743 0 -708 3 -708 -65 0 -44 14 -55 75 -55 102 0
206 -61 252 -146 33 -62 87 -175 87 -183 0 -4 6 -21 14 -37 22 -47 156 -411
156 -426 0 -10 -154 -410 -189 -493 -5 -11 -19 -45 -31 -75 -11 -30 -25 -64
-30 -75 -9 -20 -131 -333 -152 -390 -6 -16 -15 -34 -20 -39 -10 -12 -34 19
-43 54 -3 14 -12 39 -19 55 -8 17 -22 50 -31 75 -10 25 -21 54 -26 65 -14 34
-114 293 -162 420 -25 66 -71 185 -102 265 -31 80 -79 204 -106 275 -27 72
-53 139 -58 150 -4 11 -16 37 -25 58 -9 21 -16 45 -16 55 0 9 -7 26 -15 36 -8
11 -15 30 -15 43 0 13 -7 38 -16 56 -25 48 -25 168 0 196 29 32 102 61 155 61
26 0 52 5 59 12 19 19 14 66 -8 88 -20 20 -33 20 -619 20 -540 0 -601 -2 -616
-16z"/>
<path d="M6590 4283 c-76 -15 -135 -108 -128 -200 5 -60 25 -93 84 -138 89
-68 197 -66 265 5 36 38 79 139 79 185 0 29 -33 57 -62 53 -19 -2 -24 -10 -29
-48 -9 -77 -48 -130 -94 -130 -29 0 -27 28 10 121 38 96 40 133 7 143 -31 9
-106 14 -132 9z m44 -109 c19 -19 19 -24 1 -48 -8 -11 -15 -27 -15 -36 0 -22
-19 -40 -37 -33 -7 3 -20 18 -29 34 -17 33 -8 58 28 83 28 20 33 20 52 0z"/>
<path d="M6371 3864 c-16 -36 -18 -49 -9 -64 10 -16 8 -22 -16 -41 -56 -44
-71 -121 -36 -189 53 -104 234 -161 319 -101 46 33 75 100 66 157 -5 39 -4 44
13 44 10 0 29 -12 43 -26 37 -40 33 -115 -9 -178 -37 -54 -33 -70 20 -81 31
-7 43 3 76 65 17 31 42 123 42 153 0 40 -27 100 -58 132 -42 42 -75 58 -267
125 -49 18 -98 36 -107 41 -37 19 -56 10 -77 -37z m209 -153 c47 -38 52 -81
14 -116 -15 -14 -39 -25 -54 -25 -67 0 -140 56 -140 107 0 13 12 36 26 50 23
23 31 25 72 19 29 -4 60 -17 82 -35z"/>
<path d="M6239 3425 c-34 -19 -60 -58 -81 -125 -32 -101 -17 -147 45 -138 19
3 22 10 24 57 2 61 26 104 62 109 30 5 35 -18 17 -79 -21 -69 -20 -107 3 -145
42 -69 138 -81 195 -24 27 26 31 38 33 90 1 49 7 67 28 92 18 21 25 40 23 61
-3 29 -8 32 -123 73 -126 45 -183 52 -226 29z m210 -161 c25 -32 27 -61 4 -86
-22 -24 -60 -23 -74 3 -10 19 -5 81 7 101 11 17 44 7 63 -18z"/>
<path d="M6104 3051 c-64 -39 -101 -130 -75 -180 10 -18 9 -23 -13 -32 -34
-16 -63 -86 -43 -106 12 -12 97 -45 362 -139 39 -14 85 -32 103 -40 18 -8 39
-14 47 -14 20 0 47 55 43 88 -3 23 -12 30 -75 52 -95 33 -104 42 -72 77 66 72
64 156 -5 231 -64 71 -205 104 -272 63z m154 -129 c66 -30 84 -103 36 -141
-28 -22 -78 -28 -89 -11 -3 6 -14 10 -24 10 -10 0 -30 9 -45 21 -21 16 -26 29
-26 62 0 50 7 63 40 76 28 10 59 6 108 -17z"/>
<path d="M777 2483 c-17 -16 -3 -58 59 -179 36 -71 74 -142 85 -159 10 -16 22
-37 26 -45 17 -36 163 -243 231 -327 98 -122 321 -345 441 -442 86 -69 295
-217 332 -234 8 -4 28 -16 44 -27 38 -24 335 -171 395 -194 25 -10 60 -24 78
-32 18 -8 37 -14 43 -14 6 0 25 -6 42 -13 39 -17 119 -40 297 -87 25 -6 74
-15 110 -20 36 -5 78 -13 93 -19 16 -6 54 -11 85 -11 31 0 102 -7 157 -15 55
-8 154 -15 220 -15 66 0 165 7 220 15 55 8 126 15 157 15 31 0 69 5 85 11 15
6 57 14 93 19 36 5 85 14 110 20 169 44 260 71 297 87 17 7 36 13 42 13 6 0
25 6 43 14 18 8 53 22 78 32 60 23 357 170 395 194 17 11 36 23 44 27 60 29
367 253 399 292 16 20 15 60 -2 67 -8 3 -54 -26 -107 -68 -118 -93 -188 -142
-323 -223 -102 -62 -387 -206 -431 -218 -11 -3 -45 -15 -75 -27 -30 -12 -68
-25 -85 -30 -28 -8 -52 -15 -127 -41 -18 -6 -54 -15 -80 -19 -26 -5 -56 -13
-67 -19 -11 -6 -32 -11 -48 -11 -15 0 -50 -7 -77 -15 -27 -8 -68 -15 -90 -15
-23 -1 -68 -7 -101 -15 -86 -21 -614 -21 -700 0 -33 8 -78 14 -101 15 -22 0
-63 7 -90 15 -27 8 -62 15 -77 15 -16 0 -37 5 -48 11 -11 6 -41 14 -67 19 -26
4 -60 12 -77 18 -16 6 -46 15 -65 22 -19 6 -48 15 -65 20 -16 5 -55 18 -85 30
-30 12 -64 24 -75 27 -11 3 -89 39 -173 79 -504 244 -888 578 -1172 1019 -44
69 -119 196 -139 235 -12 25 -26 52 -31 60 -5 8 -19 38 -31 65 -12 28 -29 58
-37 68 -15 17 -43 23 -55 10z"/>
<path d="M5885 2426 c-66 -30 -101 -99 -91 -176 l7 -51 -28 7 c-27 6 -41 11
-130 49 -23 10 -48 15 -55 13 -15 -6 -43 -92 -34 -106 5 -9 25 -17 181 -72 50
-18 145 -52 211 -77 67 -25 130 -43 139 -41 20 4 47 75 39 101 -4 12 3 29 19
45 32 35 57 85 57 114 -1 34 -34 99 -66 130 -63 59 -190 92 -249 64z m156
-151 c41 -27 54 -66 36 -105 -26 -55 -93 -57 -168 -7 -27 18 -35 30 -37 61 -7
82 79 108 169 51z"/>
<path d="M5720 1977 c-65 -30 -95 -84 -95 -174 0 -65 3 -75 31 -110 49 -61
106 -87 189 -87 105 0 145 35 187 164 23 71 22 85 -4 110 -41 38 -68 22 -68
-41 0 -59 -50 -123 -92 -117 -30 4 -28 20 12 130 18 48 30 94 27 102 -12 31
-137 46 -187 23z m77 -103 c9 -25 -22 -109 -43 -113 -41 -8 -60 73 -24 109 24
24 58 26 67 4z"/>
</g>
</svg>
